<svg width="21" height="23" viewBox="0 0 21 23" fill="none" xmlns="http://www.w3.org/2000/svg">
<path d="M20.975 21.2784V21.8453H14.2787C14.2787 21.8453 14.3351 18.2171 14.3325 18.1925C12.3431 20.8421 9.9794 22.1361 6.87479 22.1361C2.98314 22.1361 0.468183 20.4601 0.0528681 17.071C-0.349628 13.7781 1.568 10.9116 5.05715 10.1821C10.0435 9.1444 14.5094 9.85672 14.5094 4.9987C14.5094 3.22408 13.7916 0.714961 11.2458 0.714961C8.60527 0.714961 7.16705 3.4459 6.6133 5.62721C6.19542 7.05183 5.13406 8.32364 3.08825 7.95886C1.90384 7.74936 0.701477 7.0469 1.04244 5.17862C1.72694 1.4322 7.36189 0.000183105 10.7741 0.000183105C16.1271 0.000183105 19.8059 1.30404 19.8059 4.08181C19.8059 6.88669 15.7246 8.45674 14.0813 9.23314C10.1358 11.094 3.8471 12.8046 4.68029 17.1425C5.05715 19.102 6.80301 20.5513 9.26413 20.4527C12.079 20.3368 14.212 17.9263 14.212 15.2175V10.5666C15.881 9.85179 19.0522 8.74019 19.8418 7.23422L19.8931 17.8918C19.8931 20.2407 20.975 21.2759 20.975 21.2784Z" fill="#1C2B4D"/>
</svg>
