<svg width="25" height="25" viewBox="0 0 25 25" fill="none" xmlns="http://www.w3.org/2000/svg">
<path d="M20.8333 10.417L19.2859 18.154C19.095 19.1086 18.9996 19.5858 18.7504 19.9428C18.5306 20.2576 18.2282 20.5056 17.8764 20.6593C17.4774 20.8337 16.9907 20.8337 16.0173 20.8337H8.98268C8.00927 20.8337 7.52256 20.8337 7.12363 20.6593C6.77184 20.5056 6.46938 20.2576 6.24963 19.9428C6.00043 19.5858 5.90498 19.1086 5.71408 18.154L4.16667 10.417M3.125 10.417H21.875M8.33333 13.542V13.5524M16.6667 13.542V13.5524M6.25 10.417L9.375 4.16699M18.75 10.417L15.625 4.16699" stroke="#3B4250" stroke-width="2" stroke-linecap="round" stroke-linejoin="round"/>
</svg>
