<svg width="19" height="20" viewBox="0 0 19 20" fill="none" xmlns="http://www.w3.org/2000/svg">
<path fill-rule="evenodd" clip-rule="evenodd" d="M13.9183 0.603004C13.8724 0.262469 13.5828 0 13.2323 0C12.8499 0 12.54 0.312359 12.54 0.697674V1.46902H6.46814V0.697674L6.46182 0.603004C6.41598 0.262469 6.12632 0 5.77583 0C5.39348 0 5.08353 0.312359 5.08353 0.697674V1.48634C2.24655 1.68173 0.5 3.51992 0.5 6.48579V14.9041C0.5 18.0872 2.45834 20 5.59625 20H13.4036C16.5453 20 18.4999 18.1193 18.4999 14.9744V6.48579C18.509 3.51875 16.7679 1.68104 13.9246 1.48624V0.697674L13.9183 0.603004ZM12.54 2.86441V3.75887L12.5463 3.85354C12.5921 4.19407 12.8818 4.45654 13.2323 4.45654C13.6146 4.45654 13.9246 4.14418 13.9246 3.75887V2.88499C15.9935 3.0569 17.1222 4.30257 17.1156 6.48369V6.88768H1.88488V6.48583C1.88488 4.3064 3.01942 3.05813 5.08353 2.8852V3.75887L5.08985 3.85354C5.13569 4.19407 5.42535 4.45654 5.77583 4.45654C6.15818 4.45654 6.46814 4.14418 6.46814 3.75887V2.86441H12.54ZM1.88488 8.28303V14.9041C1.88488 17.3067 3.21379 18.6047 5.59653 18.6047H13.4039C15.7948 18.6047 17.1156 17.3339 17.1156 14.9745L17.1156 8.28303H1.88488ZM14.3012 11.2183C14.3012 10.833 13.9912 10.5206 13.6089 10.5206L13.5064 10.527C13.1685 10.5732 12.908 10.8651 12.908 11.2183C12.908 11.6036 13.218 11.916 13.6089 11.916L13.7028 11.9096C14.0407 11.8634 14.3012 11.5715 14.3012 11.2183ZM9.51278 10.5206C9.89513 10.5206 10.2051 10.833 10.2051 11.2183C10.2051 11.5715 9.94463 11.8634 9.60672 11.9096L9.51278 11.916C9.12187 11.916 8.81192 11.6036 8.81192 11.2183C8.81192 10.8651 9.07237 10.5732 9.41028 10.527L9.51278 10.5206ZM6.10019 11.2184C6.10019 10.833 5.79024 10.5207 5.40789 10.5207L5.30539 10.527C4.96748 10.5732 4.70703 10.8651 4.70703 11.2184C4.70703 11.6037 5.01699 11.916 5.39934 11.916L5.50183 11.9097C5.83974 11.8635 6.10019 11.5716 6.10019 11.2184ZM13.6089 14.136C13.9912 14.136 14.3012 14.4484 14.3012 14.8337C14.3012 15.1869 14.0407 15.4788 13.7028 15.525L13.6089 15.5314C13.218 15.5314 12.908 15.219 12.908 14.8337C12.908 14.4805 13.1685 14.1886 13.5064 14.1424L13.6089 14.136ZM10.2051 14.8337C10.2051 14.4484 9.89513 14.136 9.51278 14.136L9.41028 14.1424C9.07237 14.1886 8.81192 14.4805 8.81192 14.8337C8.81192 15.219 9.12187 15.5314 9.51278 15.5314L9.60672 15.525C9.94463 15.4788 10.2051 15.1869 10.2051 14.8337ZM5.40789 14.1361C5.79024 14.1361 6.10019 14.4484 6.10019 14.8338C6.10019 15.187 5.83974 15.4789 5.50183 15.5251L5.39934 15.5314C5.01699 15.5314 4.70703 15.2191 4.70703 14.8338C4.70703 14.4806 4.96748 14.1887 5.30539 14.1425L5.40789 14.1361Z" fill="#79879C"/>
</svg>
