<svg width="22" height="21" viewBox="0 0 22 21" fill="none" xmlns="http://www.w3.org/2000/svg">
<path fill-rule="evenodd" clip-rule="evenodd" d="M14.9574 1H17.8974C19.1137 1 20.1005 1.99531 20.1005 3.22316V6.18769C20.1005 7.41462 19.1137 8.41086 17.8974 8.41086H14.9574C13.7402 8.41086 12.7534 7.41462 12.7534 6.18769V3.22316C12.7534 1.99531 13.7402 1 14.9574 1Z" stroke="#79879C" stroke-width="1.5" stroke-linecap="round" stroke-linejoin="round"/>
<path fill-rule="evenodd" clip-rule="evenodd" d="M4.30413 1H7.24314C8.46043 1 9.44717 1.99531 9.44717 3.22316V6.18769C9.44717 7.41462 8.46043 8.41086 7.24314 8.41086H4.30413C3.08684 8.41086 2.1001 7.41462 2.1001 6.18769V3.22316C2.1001 1.99531 3.08684 1 4.30413 1Z" stroke="#79879C" stroke-width="1.5" stroke-linecap="round" stroke-linejoin="round"/>
<path fill-rule="evenodd" clip-rule="evenodd" d="M4.30413 11.5891H7.24314C8.46043 11.5891 9.44717 12.5844 9.44717 13.8132V16.7768C9.44717 18.0047 8.46043 19 7.24314 19H4.30413C3.08684 19 2.1001 18.0047 2.1001 16.7768V13.8132C2.1001 12.5844 3.08684 11.5891 4.30413 11.5891Z" stroke="#79879C" stroke-width="1.5" stroke-linecap="round" stroke-linejoin="round"/>
<path fill-rule="evenodd" clip-rule="evenodd" d="M14.9574 11.5891H17.8974C19.1137 11.5891 20.1005 12.5844 20.1005 13.8132V16.7768C20.1005 18.0047 19.1137 19 17.8974 19H14.9574C13.7402 19 12.7534 18.0047 12.7534 16.7768V13.8132C12.7534 12.5844 13.7402 11.5891 14.9574 11.5891Z" stroke="#79879C" stroke-width="1.5" stroke-linecap="round" stroke-linejoin="round"/>
</svg>
