<svg width="19" height="20" viewBox="0 0 19 20" fill="none" xmlns="http://www.w3.org/2000/svg">
<path fill-rule="evenodd" clip-rule="evenodd" d="M9.85359 0.833555C6.63461 0.820619 3.64554 2.48976 1.97267 5.23343C0.299583 7.97745 0.187265 11.3958 1.67664 14.2434L1.84514 14.5719C1.90956 14.6926 1.92199 14.8229 1.88466 14.9433C1.64399 15.5793 1.43254 16.2661 1.26381 16.9639L1.2459 17.1142C1.2459 17.8158 1.62027 18.2979 2.36327 18.2814L2.48699 18.2665C3.16194 18.1175 3.82663 17.9255 4.47701 17.6916C4.56322 17.6698 4.70443 17.6783 4.83186 17.7304L5.45751 18.0845C5.45892 18.0889 5.45997 18.0921 5.46653 18.0959L5.50852 18.1106C8.87732 19.882 12.9916 19.3933 15.8502 16.8822C18.7092 14.3708 19.7187 10.3576 18.3874 6.79522C17.0561 3.23319 13.661 0.861537 9.85359 0.833555ZM9.58732 2.11578L9.84478 2.11175C13.1216 2.13667 16.0437 4.1779 17.1892 7.24299C18.3346 10.3077 17.4662 13.7603 15.0061 15.9213L14.8042 16.0927C12.4245 18.0465 9.12049 18.4403 6.34709 17.1012L6.08334 16.969L6.09464 16.9705L6.07796 16.966L5.69083 16.7438C5.55144 16.6651 5.44086 16.6054 5.35174 16.5625C4.92718 16.3874 4.4962 16.3616 4.09085 16.4733L3.70711 16.6051C3.4535 16.6888 3.20387 16.7645 2.95546 16.8329L2.59332 16.9275L2.50705 17.2645C2.66347 16.6176 2.85949 15.9809 3.09402 15.358C3.24494 14.8751 3.19879 14.3913 2.97821 13.9785L2.81236 13.6551C1.5287 11.2007 1.62532 8.26009 3.06475 5.89929C4.45939 3.61195 6.91749 2.19217 9.58732 2.11578ZM4.7355 10.0002C4.7355 9.4225 5.20416 8.95461 5.78175 8.95461C6.35934 8.95461 6.828 9.4225 6.828 10.0002C6.828 10.5779 6.35934 11.0458 5.78175 11.0458C5.20416 11.0458 4.7355 10.5779 4.7355 10.0002ZM8.80264 10.0002C8.80264 9.4225 9.2713 8.95461 9.84889 8.95461C10.4265 8.95461 10.8951 9.4225 10.8951 10.0002C10.8951 10.5779 10.4265 11.0458 9.84889 11.0458C9.2713 11.0458 8.80264 10.5779 8.80264 10.0002ZM13.916 8.95461C13.3384 8.95461 12.8698 9.4225 12.8698 10.0002C12.8698 10.5779 13.3384 11.0458 13.916 11.0458C14.4936 11.0458 14.9623 10.5779 14.9623 10.0002C14.9623 9.4225 14.4936 8.95461 13.916 8.95461Z" fill="#79879C"/>
</svg>
