<svg width="23" height="23" viewBox="0 0 23 23" fill="none" xmlns="http://www.w3.org/2000/svg">
<circle cx="11.5" cy="11.5" r="10.5" fill="white" stroke="#E9ECF1"/>
<path fill-rule="evenodd" clip-rule="evenodd" d="M11.5175 8.03037C10.2894 6.59997 8.23725 6.15791 6.69852 7.46773C5.15979 8.77755 4.94316 10.9675 6.15153 12.5166C7.15621 13.8046 10.1967 16.5211 11.1932 17.4003C11.3047 17.4987 11.3605 17.5479 11.4255 17.5672C11.4822 17.5841 11.5443 17.5841 11.6011 17.5672C11.6661 17.5479 11.7219 17.4987 11.8333 17.4003C12.8299 16.5211 15.8704 13.8046 16.8751 12.5166C18.0834 10.9675 17.8932 8.76377 16.3281 7.46773C14.7629 6.17169 12.7456 6.59997 11.5175 8.03037Z" stroke="#3B4250" stroke-width="1.5" stroke-linecap="round" stroke-linejoin="round"/>
</svg>
