<svg width="21" height="21" viewBox="0 0 21 21" fill="none" xmlns="http://www.w3.org/2000/svg">
<circle cx="10.5" cy="10.5" r="10.5" fill="#2D3091"/>
<path fill-rule="evenodd" clip-rule="evenodd" d="M10.5175 7.03037C9.2894 5.59997 7.23725 5.15791 5.69852 6.46773C4.15979 7.77755 3.94316 9.9675 5.15153 11.5166C6.15621 12.8046 9.19672 15.5211 10.1932 16.4003C10.3047 16.4987 10.3605 16.5479 10.4255 16.5672C10.4822 16.5841 10.5443 16.5841 10.6011 16.5672C10.6661 16.5479 10.7219 16.4987 10.8333 16.4003C11.8299 15.5211 14.8704 12.8046 15.8751 11.5166C17.0834 9.9675 16.8932 7.76377 15.3281 6.46773C13.7629 5.17169 11.7456 5.59997 10.5175 7.03037Z" fill="white"/>
</svg>
