<svg width="21" height="20" viewBox="0 0 21 20" fill="none" xmlns="http://www.w3.org/2000/svg">
<path d="M6.7002 13C6.7002 13 8.3002 15 10.7002 15C13.1002 15 14.7002 13 14.7002 13M1.7002 12.6V10.1301C1.7002 8.98143 1.7002 8.40707 1.84825 7.87814C1.9794 7.4096 2.19493 6.96892 2.48425 6.57775C2.81087 6.13614 3.26424 5.78352 4.17098 5.07828L6.77098 3.05606C8.17628 1.96305 8.87893 1.41654 9.65481 1.20647C10.3394 1.02111 11.061 1.02111 11.7456 1.20647C12.5215 1.41654 13.2241 1.96305 14.6294 3.05606L17.2294 5.07829C18.1362 5.78352 18.5895 6.13614 18.9161 6.57775C19.2055 6.96892 19.421 7.4096 19.5521 7.87814C19.7002 8.40707 19.7002 8.98143 19.7002 10.1301V12.6C19.7002 14.8402 19.7002 15.9603 19.2642 16.816C18.8807 17.5686 18.2688 18.1805 17.5162 18.564C16.6605 19 15.5404 19 13.3002 19H8.10019C5.85999 19 4.73988 19 3.88423 18.564C3.13159 18.1805 2.51966 17.5686 2.13617 16.816C1.7002 15.9603 1.7002 14.8402 1.7002 12.6Z" stroke="#2D3091" stroke-width="1.5" stroke-linecap="round" stroke-linejoin="round"/>
</svg>
