<svg width="24" height="25" viewBox="0 0 24 25" fill="none" xmlns="http://www.w3.org/2000/svg">
<path d="M8.5 13L10.0089 14.5089C10.3526 14.8526 10.5245 15.0245 10.7198 15.0822C10.8914 15.1328 11.0749 15.1245 11.2412 15.0585C11.4305 14.9834 11.5861 14.7967 11.8973 14.4232L16 9.5M16.3287 5.25855C17.0676 5.27963 17.8001 5.57212 18.364 6.136C18.9278 6.69989 19.2203 7.4324 19.2414 8.17121C19.2623 8.90232 19.2727 9.26787 19.2942 9.35296C19.3401 9.5351 19.2867 9.40625 19.383 9.56752C19.428 9.64286 19.6792 9.90876 20.1814 10.4405C20.6889 10.9778 21 11.7026 21 12.5C21 13.2974 20.6889 14.0222 20.1814 14.5595C19.6792 15.0912 19.428 15.3571 19.383 15.4325C19.2867 15.5937 19.3401 15.4649 19.2942 15.647C19.2727 15.7321 19.2623 16.0977 19.2414 16.8288C19.2203 17.5676 18.9278 18.3001 18.364 18.864C17.8001 19.4279 17.0676 19.7204 16.3287 19.7414C15.5976 19.7623 15.2321 19.7727 15.147 19.7942C14.9649 19.8401 15.0937 19.7868 14.9325 19.8831C14.8571 19.9281 14.5912 20.1792 14.0595 20.6814C13.5222 21.1889 12.7974 21.5 12 21.5C11.2026 21.5 10.4778 21.1889 9.94047 20.6814C9.40874 20.1792 9.14287 19.9281 9.06753 19.8831C8.90626 19.7868 9.0351 19.8401 8.85296 19.7942C8.76788 19.7727 8.40225 19.7623 7.67121 19.7414C6.93238 19.7204 6.19986 19.4279 5.63597 18.864C5.07207 18.3001 4.77959 17.5676 4.75852 16.8287C4.73766 16.0976 4.72724 15.7321 4.70578 15.647C4.65985 15.4649 4.71322 15.5937 4.61691 15.4324C4.57192 15.3571 4.32082 15.0912 3.81862 14.5595C3.31113 14.0222 3 13.2974 3 12.5C3 11.7026 3.31113 10.9778 3.81862 10.4405C4.32082 9.90876 4.57192 9.64289 4.61691 9.56755C4.71322 9.40628 4.65985 9.53512 4.70578 9.35299C4.72724 9.2679 4.73766 8.90235 4.75852 8.17126C4.77959 7.43243 5.07207 6.6999 5.63597 6.136C6.19986 5.57211 6.93238 5.27963 7.67121 5.25855C8.40232 5.23769 8.76788 5.22727 8.85296 5.20581C9.0351 5.15988 8.90626 5.21325 9.06753 5.11694C9.14287 5.07195 9.40876 4.82082 9.94047 4.31863C10.4778 3.81113 11.2026 3.5 12 3.5C12.7974 3.5 13.5222 3.81114 14.0595 4.31864C14.5913 4.82084 14.8571 5.07194 14.9325 5.11693C15.0937 5.21324 14.9649 5.15988 15.147 5.20581C15.2321 5.22726 15.5976 5.23769 16.3287 5.25855Z" stroke="#79879C" stroke-width="2" stroke-linecap="round" stroke-linejoin="round"/>
</svg>
