<svg width="17" height="17" viewBox="0 0 17 17" fill="none" xmlns="http://www.w3.org/2000/svg">
<path d="M12.6668 6.83333V5.16667C12.6668 2.86548 10.8013 1 8.50016 1C6.19898 1 4.3335 2.86548 4.3335 5.16667V6.83333M8.50016 10.5833V12.25M5.8335 16H11.1668C12.567 16 13.267 16 13.8018 15.7275C14.2722 15.4878 14.6547 15.1054 14.8943 14.635C15.1668 14.1002 15.1668 13.4001 15.1668 12V10.8333C15.1668 9.4332 15.1668 8.73314 14.8943 8.19836C14.6547 7.72795 14.2722 7.3455 13.8018 7.10582C13.267 6.83333 12.567 6.83333 11.1668 6.83333H5.8335C4.43336 6.83333 3.7333 6.83333 3.19852 7.10582C2.72811 7.3455 2.34566 7.72795 2.10598 8.19836C1.8335 8.73314 1.8335 9.4332 1.8335 10.8333V12C1.8335 13.4001 1.8335 14.1002 2.10598 14.635C2.34566 15.1054 2.72811 15.4878 3.19852 15.7275C3.7333 16 4.43336 16 5.8335 16Z" stroke="#79879C" stroke-width="2" stroke-linecap="round" stroke-linejoin="round"/>
</svg>
