<svg width="24" height="25" viewBox="0 0 24 25" fill="none" xmlns="http://www.w3.org/2000/svg">
<path d="M18 8.50012C18 6.90882 17.3679 5.3827 16.2426 4.25748C15.1174 3.13226 13.5913 2.50012 12 2.50012C10.4087 2.50012 8.88258 3.13226 7.75736 4.25748C6.63214 5.3827 6 6.90882 6 8.50012C6 15.5001 3 17.5001 3 17.5001H21C21 17.5001 18 15.5001 18 8.50012Z" stroke="#151A26" stroke-width="1.5" stroke-linecap="round" stroke-linejoin="round"/>
<path d="M13.73 21.5001C13.5542 21.8032 13.3019 22.0548 12.9982 22.2297C12.6946 22.4045 12.3504 22.4966 12 22.4966C11.6496 22.4966 11.3054 22.4045 11.0018 22.2297C10.6982 22.0548 10.4458 21.8032 10.27 21.5001" stroke="#151A26" stroke-width="1.5" stroke-linecap="round" stroke-linejoin="round"/>
</svg>
