<svg width="19" height="21" viewBox="0 0 19 21" fill="none" xmlns="http://www.w3.org/2000/svg">
<path d="M16.5131 12.3649L17.8298 14.6805C17.6733 14.9862 17.4985 15.2864 17.305 15.5797C17.1115 15.873 16.9043 16.1519 16.6848 16.416L14.0948 16.1274C13.402 16.6956 12.6024 17.1385 11.7306 17.4214M7.22918 3.57732L8.43956 1.20224C8.78103 1.16451 9.12803 1.14514 9.47956 1.14514C9.83109 1.14514 10.1781 1.16451 10.5196 1.20224L11.7299 3.57732C12.5873 3.85505 13.368 4.2817 14.053 4.83584L16.6841 4.54049C16.9036 4.80463 17.1108 5.0835 17.3043 5.37681C17.4978 5.67012 17.6727 5.97031 17.8291 6.27599L16.5091 8.59736M16.5094 8.601C16.6727 9.20639 16.7598 9.84302 16.7598 10.5C16.7598 11.1458 16.6756 11.772 16.5176 12.3681M11.7306 17.4214C11.7305 17.4215 11.7308 17.4214 11.7306 17.4214ZM11.7306 17.4214L10.5198 19.7974C10.1783 19.8351 9.83134 19.8545 9.47981 19.8545C9.12828 19.8545 8.78128 19.8351 8.43981 19.7974L7.22584 17.4204C6.35364 17.1369 5.55374 16.6932 4.86085 16.1241L2.25583 16.4156C2.03634 16.1515 1.82915 15.8726 1.63564 15.5793C1.44213 15.286 1.26729 14.9858 1.11084 14.6801L2.43501 12.3514C2.28074 11.7619 2.19981 11.1379 2.19981 10.5C2.19981 9.85008 2.28507 9.22007 2.44502 8.62052L1.11124 6.27567C1.26769 5.96999 1.44253 5.66979 1.63604 5.37649C1.82954 5.08318 2.03674 4.80431 2.25622 4.54016L4.91339 4.83845C5.59806 4.28494 6.37649 3.8547 7.23319 3.5772M11.7306 17.4214L11.7319 17.4189M12.5998 10.5C12.5998 12.2221 11.2029 13.6182 9.4798 13.6182C7.75667 13.6182 6.3598 12.2221 6.3598 10.5C6.3598 8.77783 7.75667 7.38175 9.4798 7.38175C11.2029 7.38175 12.5998 8.77783 12.5998 10.5Z" stroke="#151A26" stroke-width="1.5" stroke-linecap="round" stroke-linejoin="round"/>
</svg>
