<svg width="20" height="19" viewBox="0 0 20 19" fill="none" xmlns="http://www.w3.org/2000/svg">
<path d="M1 5.50006V14.3001C1 15.4202 1 15.9802 1.21799 16.408C1.40973 16.7844 1.71569 17.0903 2.09202 17.2821C2.51984 17.5001 3.07989 17.5001 4.2 17.5001H15.8C16.9201 17.5001 17.4802 17.5001 17.908 17.2821C18.2843 17.0903 18.5903 16.7844 18.782 16.408C19 15.9802 19 15.4202 19 14.3001V8.20006C19 7.54897 19 7.22343 18.9249 6.95718C18.736 6.28745 18.2126 5.76403 17.5429 5.57515C17.2766 5.50006 16.9511 5.50006 16.3 5.50006M1 5.50006V4.70006C1 3.57996 1 3.0199 1.21799 2.59208C1.40973 2.21576 1.71569 1.90979 2.09202 1.71805C2.51984 1.50006 3.07989 1.50006 4.2 1.50006H13.1C14.2201 1.50006 14.7802 1.50006 15.208 1.71805C15.5843 1.90979 15.8903 2.21576 16.082 2.59208C16.3 3.0199 16.3 3.57996 16.3 4.70006V5.50006M1 5.50006H16.3M19 9.50006H17C15.8954 9.50006 15 10.3955 15 11.5001C15 12.6046 15.8954 13.5001 17 13.5001H19V9.50006Z" stroke="#151A26" stroke-width="1.5" stroke-linecap="round" stroke-linejoin="round"/>
</svg>
