<svg width="17" height="17" viewBox="0 0 17 17" fill="none" xmlns="http://www.w3.org/2000/svg">
<g clip-path="url(#clip0_2865_7471)">
<path d="M7.09984 3.32664C7.55872 3.21923 8.02855 3.16554 8.49984 3.16664C13.1665 3.16664 15.8332 8.49998 15.8332 8.49998C15.4285 9.25705 14.9459 9.9698 14.3932 10.6266M9.91317 9.91331C9.73007 10.1098 9.50927 10.2674 9.26394 10.3767C9.01861 10.486 8.75377 10.5448 8.48523 10.5496C8.21669 10.5543 7.94995 10.5049 7.70091 10.4043C7.45188 10.3037 7.22565 10.154 7.03573 9.96408C6.84582 9.77416 6.6961 9.54794 6.59551 9.2989C6.49492 9.04987 6.44552 8.78312 6.45026 8.51458C6.455 8.24604 6.51378 7.98121 6.62309 7.73587C6.7324 7.49054 6.89001 7.26974 7.0865 7.08664M12.4598 12.46C11.3202 13.3286 9.93258 13.8099 8.49984 13.8333C3.83317 13.8333 1.1665 8.49998 1.1665 8.49998C1.99576 6.95457 3.14593 5.60438 4.53984 4.53998L12.4598 12.46Z" stroke="#79879C" stroke-width="1.2" stroke-linecap="round" stroke-linejoin="round"/>
<path d="M1.1665 1.16663L15.8332 15.8333" stroke="#79879C" stroke-width="1.2" stroke-linecap="round" stroke-linejoin="round"/>
</g>
<defs>
<clipPath id="clip0_2865_7471">
<rect width="16" height="16" fill="white" transform="translate(0.5 0.5)"/>
</clipPath>
</defs>
</svg>
