<svg width="36" height="36" viewBox="0 0 36 36" fill="none" xmlns="http://www.w3.org/2000/svg">
<mask id="mask0_2865_8852" style="mask-type:luminance" maskUnits="userSpaceOnUse" x="2" y="2" width="32" height="33">
<rect width="32" height="32" rx="16" transform="matrix(-1 0 0 1 34 2.25773)" fill="white"/>
</mask>
<g mask="url(#mask0_2865_8852)">
<rect width="16" height="26.6667" rx="2" transform="matrix(-1 0 0 1 17.2383 12.9244)" fill="#BFCFE3" fill-opacity="0.2"/>
<path fill-rule="evenodd" clip-rule="evenodd" d="M15.3332 11.7815C17.0163 11.7815 18.3808 13.146 18.3808 14.8292V15.2101H18.6427C18.9189 15.2101 19.1427 15.434 19.1427 15.7101V21.5673C19.1427 21.8434 18.9189 22.0673 18.6427 22.0673H18.3808V39.2101C18.3808 40.8933 17.0163 42.2577 15.3332 42.2577H1.61891C-0.0642453 42.2577 -1.42871 40.8933 -1.42871 39.2101V14.8292C-1.42871 13.146 -0.0642453 11.7815 1.61891 11.7815H15.3332ZM15.0475 12.9244H1.90462C0.694856 12.9244 -0.285854 13.9208 -0.285854 15.15V38.8893C-0.285854 40.1185 0.694856 41.1149 1.90462 41.1149H15.0475C16.2572 41.1149 17.238 40.1185 17.238 38.8893V15.15C17.238 13.9208 16.2572 12.9244 15.0475 12.9244Z" fill="#007AFF"/>
</g>
<rect x="0.75" y="-0.75" width="33.5" height="33.5" rx="16.75" transform="matrix(-1 0 0 1 35.5 2.25773)" stroke="#007AFF" stroke-width="1.5"/>
<path d="M20.6665 17.8794C20.6665 17.6666 20.7576 17.4435 20.8992 17.3033L24.1822 13.9354C24.3441 13.7693 24.5313 13.6863 24.7185 13.6863C25.1636 13.6863 25.4671 14.0029 25.4671 14.4232C25.4671 14.6619 25.366 14.8436 25.2243 14.9837L24.076 16.1669L23.0289 17.158L24.1215 17.0958H29.0152C29.4907 17.0958 29.8094 17.4123 29.8094 17.8794C29.8094 18.3464 29.4907 18.6578 29.0152 18.6578H24.1215L23.0289 18.6007L24.076 19.5867L25.2243 20.7647C25.366 20.91 25.4671 21.0916 25.4671 21.3252C25.4671 21.7455 25.1636 22.0673 24.7185 22.0673C24.5313 22.0673 24.3441 21.9842 24.1873 21.8234L20.8992 18.4502C20.7576 18.3101 20.6665 18.087 20.6665 17.8794Z" fill="#007AFF"/>
</svg>
