<svg width="147" height="76" viewBox="0 0 147 76" fill="none" xmlns="http://www.w3.org/2000/svg">
<path d="M40.954 56.7712V57.8855H27.8789C27.8789 57.8855 27.9889 50.7543 27.9852 50.7071C24.098 55.9158 19.4847 58.4602 13.4252 58.4602C5.82713 58.4602 0.91757 55.1668 0.103892 48.5027C-0.684788 42.0273 3.05988 36.3916 9.87302 34.9615C19.6059 32.9191 28.3301 34.3214 28.3301 24.7692C28.3301 21.2799 26.9303 16.3483 21.9582 16.3483C16.8037 16.3483 13.9939 21.7166 12.9103 26.007C12.0966 28.8091 10.0218 31.31 6.02587 30.5913C3.71482 30.1775 1.36503 28.7994 2.02997 25.1262C3.36485 17.7615 14.3701 14.9448 21.0308 14.9448C31.4836 14.9448 38.6667 17.5062 38.6667 22.9701C38.6667 28.4861 30.6999 31.5701 27.4877 33.097C19.7859 36.7545 7.50698 40.1181 9.13309 48.6455C9.86803 52.5002 13.2765 55.3483 18.0848 55.1523C23.5806 54.9248 27.7464 50.1869 27.7464 44.8597V35.714C31.0074 34.3105 37.1944 32.1242 38.7405 29.16L38.8392 50.1119C38.8405 54.7313 40.954 56.7675 40.954 56.7712Z" fill="white"/>
<path d="M82.1613 15.9199L82.1551 17.0306C82.1551 17.0306 80.0565 17.4782 77.9954 20.7063L59.4633 64.264C58.4009 66.8507 55.9861 72.5712 52.2127 74.6486C47.5069 77.2378 42.6361 75.2027 40.8175 72.7236C38.0752 68.9898 42.8885 63.6143 48.3381 66.9705C51.0666 68.6487 55.1725 68.9173 56.5798 65.9082C57.5097 63.9179 60.5832 56.7686 60.5832 56.7686L45.687 20.7038C43.631 17.4746 42.3061 17.0282 42.3061 17.0282L42.2986 15.9163H57.7372L57.7297 17.0282C57.7297 17.0282 55.6587 18.5575 56.7923 20.8212L66.4002 43.5843L75.7256 20.8212C76.858 18.5575 74.787 17.0282 74.787 17.0282L74.7795 15.9163L82.1613 15.9199Z" fill="white"/>
<path d="M99.751 57.8781H85.3198L85.3273 56.7674C85.3273 56.7674 87.0209 55.5878 87.1247 52.9744L87.1384 14.318C87.1384 12.7536 87.2034 6.74279 85.5186 4.4597L85.4798 3.39015C91.5668 3.39015 96.6326 0 96.6326 0H97.9962L98.0037 52.8752C98.0037 55.5745 99.7448 56.7674 99.7448 56.7674L99.751 57.8781Z" fill="white"/>
<path d="M146.237 56.7712V57.8855H133.162C133.162 57.8855 133.272 50.7543 133.268 50.7071C129.381 55.9158 124.768 58.4602 118.708 58.4602C111.11 58.4602 106.201 55.1668 105.387 48.5027C104.598 42.0273 108.343 36.3916 115.156 34.9615C124.889 32.9191 133.613 34.3214 133.613 24.7692C133.613 21.2799 132.213 16.3483 127.241 16.3483C122.087 16.3483 119.277 21.7166 118.193 26.007C117.38 28.8091 115.305 31.31 111.309 30.5913C108.998 30.1775 106.648 28.7994 107.313 25.1262C108.648 17.7615 119.653 14.9448 126.314 14.9448C136.767 14.9448 143.95 17.5062 143.95 22.9701C143.95 28.4861 135.983 31.5701 132.771 33.097C125.069 36.7557 112.79 40.1181 114.416 48.6455C115.151 52.5002 118.56 55.3483 123.368 55.1523C128.864 54.9248 133.03 50.1869 133.03 44.8597V35.714C136.291 34.3105 142.478 32.1242 144.024 29.16L144.122 50.1119C144.124 54.7313 146.237 56.7675 146.237 56.7712Z" fill="white"/>
<path d="M94.9678 65.8779V76H93.9079V71.3588H88.1871V76H87.126V65.8779H88.1871V70.4477H93.9079V65.8779H94.9678Z" fill="#FFFFE1"/>
<path d="M105.259 76H98.4321V65.8779H104.975V66.789H99.4933V70.4187H104.512V71.3443H99.4933V75.0744H105.259V76Z" fill="#FFFFE1"/>
<path d="M115.641 76L114.461 73.1373H109.472L108.292 76H107.157L111.399 65.8779H112.564L116.806 76H115.641ZM109.845 72.2263H114.087L111.966 67.0358L109.845 72.2263Z" fill="#FFFFE1"/>
<path d="M125.709 75.0744V76H119.375V65.8779H120.436V75.0744H125.709Z" fill="#FFFFE1"/>
<path d="M133.88 65.8779V66.789H130.296V76H129.236V66.789H125.666V65.8779H133.88Z" fill="#FFFFE1"/>
<path d="M144.069 65.8779V76H143.009V71.3588H137.288V76H136.227V65.8779H137.288V70.4477H143.009V65.8779H144.069Z" fill="#FFFFE1"/>
</svg>
