<svg width="130" height="68" viewBox="0 0 130 68" fill="none" xmlns="http://www.w3.org/2000/svg">
<path d="M36.4068 50.4675V51.4581H24.7834C24.7834 51.4581 24.8812 45.1187 24.8779 45.0768C21.4223 49.7071 17.3212 51.969 11.9346 51.969C5.18013 51.969 0.815689 49.0413 0.0923564 43.1171C-0.608754 37.3607 2.72013 32.3507 8.77679 31.0794C17.429 29.2638 25.1845 30.5104 25.1845 22.0189C25.1845 18.9169 23.9401 14.5329 19.5201 14.5329C14.9379 14.5329 12.4401 19.3052 11.4768 23.1192C10.7535 25.6102 8.90901 27.8333 5.35679 27.1945C3.30235 26.8266 1.21347 25.6016 1.80458 22.3361C2.99124 15.7892 12.7746 13.2853 18.6957 13.2853C27.9879 13.2853 34.3734 15.5622 34.3734 20.4195C34.3734 25.323 27.2912 28.0646 24.4357 29.422C17.589 32.6734 6.67346 35.6634 8.11901 43.244C8.77235 46.6708 11.8023 49.2026 16.0768 49.0284C20.9623 48.8262 24.6657 44.6143 24.6657 39.8786V31.7484C27.5645 30.5007 33.0645 28.5572 34.439 25.9221L34.5268 44.5476C34.5279 48.6541 36.4068 50.4643 36.4068 50.4675Z" fill="#1C2B4D"/>
<path d="M73.0388 14.1522L73.0332 15.1395C73.0332 15.1395 71.1676 15.5375 69.3354 18.4071L52.861 57.1284C51.9166 59.428 49.7699 64.5132 46.4155 66.36C42.2321 68.6617 37.9021 66.8526 36.2855 64.6488C33.8477 61.3296 38.1266 56.5509 42.971 59.5345C45.3966 61.0263 49.0466 61.265 50.2977 58.5901C51.1243 56.8208 53.8566 50.4653 53.8566 50.4653L40.6143 18.4049C38.7866 15.5343 37.6088 15.1374 37.6088 15.1374L37.6021 14.1489H51.3266L51.3199 15.1374C51.3199 15.1374 49.4788 16.4969 50.4866 18.5093L59.0277 38.7449L67.3176 18.5093C68.3243 16.4969 66.4832 15.1374 66.4832 15.1374L66.4765 14.1489L73.0388 14.1522Z" fill="#1C2B4D"/>
<path d="M88.6751 51.4517H75.8462L75.8529 50.4644C75.8529 50.4644 77.3584 49.4157 77.4506 47.0925L77.4629 12.7282C77.4629 11.3375 77.5206 5.99411 76.0229 3.96453L75.9884 3.01373C81.3995 3.01373 85.9028 0 85.9028 0H87.1151L87.1217 47.0043C87.1217 49.4038 88.6695 50.4644 88.6695 50.4644L88.6751 51.4517Z" fill="#1C2B4D"/>
<path d="M130 50.4675V51.4581H118.377C118.377 51.4581 118.474 45.1187 118.471 45.0768C115.016 49.7071 110.914 51.969 105.528 51.969C98.7734 51.969 94.409 49.0413 93.6856 43.1171C92.9845 37.3607 96.3134 32.3507 102.37 31.0794C111.022 29.2638 118.778 30.5104 118.778 22.0189C118.778 18.9169 117.533 14.5329 113.113 14.5329C108.531 14.5329 106.033 19.3052 105.07 23.1192C104.347 25.6102 102.502 27.8333 98.9501 27.1945C96.8956 26.8266 94.8067 25.6016 95.3978 22.3361C96.5845 15.7892 106.368 13.2853 112.289 13.2853C121.581 13.2853 127.967 15.5622 127.967 20.4195C127.967 25.323 120.884 28.0646 118.029 29.422C111.182 32.6745 100.267 35.6634 101.712 43.244C102.366 46.6708 105.396 49.2026 109.67 49.0284C114.556 48.8262 118.259 44.6143 118.259 39.8786V31.7484C121.158 30.5007 126.658 28.5572 128.032 25.9221L128.12 44.5476C128.121 48.6541 130 50.4643 130 50.4675Z" fill="#1C2B4D"/>
<path d="M84.4233 58.5634V67.5615H83.481V63.4357H78.3955V67.5615H77.4521V58.5634H78.3955V62.6258H83.481V58.5634H84.4233Z" fill="#6A707F"/>
<path d="M93.5718 67.5615H87.5029V58.5634H93.3196V59.3733H88.4463V62.5999H92.9074V63.4227H88.4463V66.7387H93.5718V67.5615Z" fill="#6A707F"/>
<path d="M102.801 67.5615L101.752 65.0167H97.3166L96.2677 67.5615H95.2588L99.0299 58.5634H100.065L103.837 67.5615H102.801ZM97.6488 64.2068H101.42L99.5343 59.5927L97.6488 64.2068Z" fill="#6A707F"/>
<path d="M111.751 66.7387V67.5615H106.12V58.5634H107.063V66.7387H111.751Z" fill="#6A707F"/>
<path d="M119.015 58.5634V59.3733H115.828V67.5615H114.886V59.3733H111.713V58.5634H119.015Z" fill="#6A707F"/>
<path d="M128.072 58.5634V67.5615H127.13V63.4357H122.044V67.5615H121.101V58.5634H122.044V62.6258H127.13V58.5634H128.072Z" fill="#6A707F"/>
</svg>
